<svg xmlns="http://www.w3.org/2000/svg" version="1.1" xmlns:xlink="http://www.w3.org/1999/xlink" xmlns:svgjs="http://svgjs.com/svgjs" width="512" height="512" x="0" y="0" viewBox="0 0 64 64" style="enable-background:new 0 0 512 512" xml:space="preserve"><g><g xmlns="http://www.w3.org/2000/svg"><g><g><path d="m4 8h30v6h-30z" fill="#aab2bd" data-original="#aab2bd"></path></g><g><path d="m4 50h56v12h-56z" fill="#d3a06c" data-original="#d3a06c"></path></g><g><path d="m62 46v4h-2-56-2v-4h2 2 22 8 2 12 2 8z" fill="#b27946" data-original="#b27946"></path></g><g><path d="m46 42h10c0 1.1-.45 2.1-1.17 2.83-.73.72-1.73 1.17-2.83 1.17h-2c-2.21 0-4-1.79-4-4z" fill="#ccd1d9" data-original="#ccd1d9"></path></g><g><path d="m32 42h10c0 1.1-.45 2.1-1.17 2.83-.73.72-1.73 1.17-2.83 1.17h-2c-2.21 0-4-1.79-4-4z" fill="#ccd1d9" data-original="#ccd1d9"></path></g><g><path d="m26 35c0 1.82-1.22 3.36-2.89 3.84-.3-.11-.6-.21-.92-.29-.07-.02-.13-.03-.19-.05-.3-.08-.58-.14-.84-.21-.72-.18-1.27-.74-1.45-1.45l-.28-1.1v-.01c1.51-.57 2.57-2.03 2.57-3.73v-5c-1.87 0-3.62-.94-4.66-2.5l-.34-.5-.34.5c-.52.78-1.22 1.4-2.02 1.84-.8.42-1.7.66-2.64.66v5c0 1.7 1.06 3.16 2.57 3.73v.01l-.28 1.09c-.18.72-.74 1.28-1.46 1.46l-.83.21-.18.04c-.32.08-.64.18-.94.3-1.66-.48-2.88-2.02-2.88-3.84v-8c0-2.48 1.01-4.74 2.64-6.36 1.62-1.63 3.88-2.64 6.36-2.64 4.97 0 9 4.03 9 9z" fill="#656d78" data-original="#656d78"></path></g><g><path d="m23.11 38.84c2.92 1.13 4.9 3.97 4.89 7.16h-22v-.02c0-3.19 1.97-6 4.88-7.14.3-.12.62-.22.94-.3l.18-.04v3.5h10v-3.5c.06.02.12.03.19.05.32.08.62.18.92.29z" fill="#b4dd7f" data-original="#b4dd7f"></path></g><g><path d="m19.71 36.84c.18.71.73 1.27 1.45 1.45.26.07.54.13.84.21v3.5h-10v-3.5l.83-.21c.72-.18 1.28-.74 1.46-1.46l.28-1.09v-.01c.44.18.93.27 1.43.27h2c.5 0 .99-.09 1.43-.27v.01z" fill="#f0d0b4" data-original="#f0d0b4"></path></g><g><path d="m22 27v5c0 1.7-1.06 3.16-2.57 3.73-.44.18-.93.27-1.43.27h-2c-.5 0-.99-.09-1.43-.27-1.51-.57-2.57-2.03-2.57-3.73v-5c.94 0 1.84-.24 2.64-.66.8-.44 1.5-1.06 2.02-1.84l.34-.5.34.5c1.04 1.56 2.79 2.5 4.66 2.5z" fill="#f0d0b4" data-original="#f0d0b4"></path></g><g><path d="m34 2h28v22h-2-26v-10-6z" fill="#e6e9ed" data-original="#e6e9ed"></path></g><g><path d="m44 11.46c-.59.34-1.27.54-2 .54s-1.41-.2-2-.54c-1.2-.69-2-1.98-2-3.46v-2h8v2c0 1.1-.45 2.1-1.17 2.83-.25.24-.53.46-.83.63z" fill="#ffeaa7" data-original="#ffeaa7"></path></g><g><path d="m54 12c.73 0 1.41-.2 2-.54v6.54c0 1.1-.9 2-2 2-.55 0-1.05-.22-1.41-.59-.37-.36-.59-.86-.59-1.41v-6.54c.59.34 1.27.54 2 .54z" fill="#fcd770" data-original="#fcd770"></path></g><g><path d="m44 11.46v6.54c0 .55-.22 1.05-.59 1.41-.36.37-.86.59-1.41.59-1.1 0-2-.9-2-2v-6.54c.59.34 1.27.54 2 .54s1.41-.2 2-.54z" fill="#fcd770" data-original="#fcd770"></path></g></g><g><path d="m34.36 34.771c.484.404.64.562.64.899 0 .321-.128.471-.64.896-.542.452-1.36 1.133-1.36 2.434h2c0-.321.128-.471.64-.896.542-.452 1.36-1.133 1.36-2.434 0-1.302-.818-1.983-1.359-2.435-.485-.404-.641-.562-.641-.9 0-.337.156-.495.64-.898.542-.453 1.36-1.134 1.36-2.437h-2c0 .338-.156.496-.641.9-.541.452-1.359 1.133-1.359 2.435 0 1.303.818 1.984 1.36 2.436z" fill="#000000" data-original="#000000"></path><path d="m39.36 36.566c-.542.452-1.36 1.133-1.36 2.434h2c0-.321.128-.471.64-.896.542-.452 1.36-1.133 1.36-2.434 0-1.302-.818-1.983-1.359-2.435-.485-.404-.641-.562-.641-.9 0-.337.156-.495.64-.898.542-.453 1.36-1.134 1.36-2.437h-2c0 .338-.156.496-.641.9-.541.452-1.359 1.133-1.359 2.435 0 1.303.818 1.984 1.36 2.437.484.403.64.561.64.898 0 .321-.128.471-.64.896z" fill="#000000" data-original="#000000"></path><path d="m48.36 36.566c-.542.452-1.36 1.133-1.36 2.434h2c0-.321.128-.471.64-.896.542-.452 1.36-1.133 1.36-2.434 0-1.302-.818-1.983-1.359-2.435-.485-.404-.641-.562-.641-.9 0-.337.156-.495.64-.898.542-.453 1.36-1.134 1.36-2.437h-2c0 .338-.156.496-.641.9-.541.452-1.359 1.133-1.359 2.435 0 1.303.818 1.984 1.36 2.437.484.403.64.561.64.898 0 .321-.128.471-.64.896z" fill="#000000" data-original="#000000"></path><path d="m53.36 36.566c-.542.452-1.36 1.133-1.36 2.434h2c0-.321.128-.471.64-.896.542-.452 1.36-1.133 1.36-2.434 0-1.302-.818-1.983-1.359-2.435-.485-.404-.641-.562-.641-.9 0-.337.156-.495.64-.898.542-.453 1.36-1.134 1.36-2.437h-2c0 .338-.156.496-.641.9-.541.452-1.359 1.133-1.359 2.435 0 1.303.818 1.984 1.36 2.437.484.403.64.561.64.898 0 .321-.128.471-.64.896z" fill="#000000" data-original="#000000"></path><path d="m63 25v-24h-30v6h-30v38h-2v6h2v12h58v-12h2v-6h-2v-20zm-28-22h26v20h-26zm-2 6v4h-28v-4zm-24 26v-8c0-4.411 3.589-8 8-8s8 3.589 8 8v8c0 1.231-.768 2.329-1.893 2.778-.22-.074-.443-.141-.671-.198l-1.033-.259c-.357-.09-.634-.368-.724-.727l-.085-.341c1.436-.879 2.406-2.449 2.406-4.253v-6h-1c-1.543 0-2.976-.767-3.832-2.051l-1.168-1.752-1.168 1.752c-.856 1.284-2.289 2.051-3.832 2.051h-1v6c0 1.804.97 3.374 2.406 4.253l-.085.339c-.09.359-.369.639-.729.728l-1.019.253c-.235.058-.465.127-.69.203-1.119-.453-1.883-1.549-1.883-2.776zm4 4.28.076-.019c1.079-.269 1.917-1.106 2.186-2.184l.037-.148c.231.033.461.071.701.071h2c.24 0 .47-.038.701-.071l.038.151c.27 1.075 1.104 1.911 2.179 2.182l.082.02v1.718h-8zm5-4.28h-2c-1.654 0-3-1.346-3-3v-4.075c1.554-.237 2.971-1.02 4-2.213 1.029 1.193 2.446 1.976 4 2.213v4.075c0 1.654-1.346 3-3 3zm-7 4.873v3.127h12v-3.122c2.102.914 3.579 2.85 3.917 5.122h-19.834c.337-2.274 1.814-4.212 3.917-5.127zm48 21.127h-54v-10h54zm2-12h-58v-2h33 2 12 2 9zm-27.829-6h7.657c-.413 1.164-1.525 2-2.829 2h-2c-1.303 0-2.415-.836-2.828-2zm14 0h7.657c-.413 1.164-1.525 2-2.829 2h-2c-1.303 0-2.415-.836-2.828-2zm11.829 2h-3.026c.635-.838 1.026-1.87 1.026-3v-1h-12v1c0 1.13.391 2.162 1.026 3h-4.051c.634-.838 1.025-1.87 1.025-3v-1h-12v1c0 1.13.391 2.162 1.026 3h-3.088c-.289-2.542-1.675-4.785-3.737-6.182 1.104-.932 1.799-2.314 1.799-3.818v-8c0-5.514-4.486-10-10-10s-10 4.486-10 10v8c0 1.503.694 2.884 1.798 3.816-2.058 1.397-3.443 3.638-3.734 6.184h-.064v-30h28v10h26z" fill="#000000" data-original="#000000"></path><path d="m57 8c0 1.302-.839 2.402-2 2.816v-5.816h-2v5.816c-1.161-.414-2-1.514-2-2.816v-3h-2v3c0 1.627.793 3.061 2 3.974v6.026c0 1.654 1.346 3 3 3s3-1.346 3-3v-6.026c1.207-.914 2-2.348 2-3.974v-3h-2zm-2 10c0 .552-.449 1-1 1s-1-.448-1-1v-5.101c.323.066.658.101 1 .101s.677-.035 1-.101z" fill="#000000" data-original="#000000"></path><path d="m37 8c0 1.627.793 3.061 2 3.974v6.026c0 1.654 1.346 3 3 3s3-1.346 3-3v-6.026c1.207-.914 2-2.348 2-3.974v-3h-10zm6 10c0 .552-.449 1-1 1s-1-.448-1-1v-5.101c.323.066.658.101 1 .101s.677-.035 1-.101zm-4-11h6v1c0 1.654-1.346 3-3 3s-3-1.346-3-3z" fill="#000000" data-original="#000000"></path></g></g></g></svg>