<svg xmlns="http://www.w3.org/2000/svg" version="1.1" xmlns:xlink="http://www.w3.org/1999/xlink" xmlns:svgjs="http://svgjs.com/svgjs" width="512" height="512" x="0" y="0" viewBox="0 0 512 512" style="enable-background:new 0 0 512 512" xml:space="preserve" class=""><g><g xmlns="http://www.w3.org/2000/svg"><g><path d="m352.976 462.073c-37.376-35.356-36.366-80.813-36.366-80.813h-121.22s1.01 45.457-36.366 80.813z" fill="#2b4d66" data-original="#2b4d66"></path></g><g><path d="m484.297 381.26h-456.594c-11.158 0-20.203-9.045-20.203-20.203v-323.252c0-11.158 9.045-20.203 20.203-20.203h456.593c11.158 0 20.203 9.045 20.203 20.203v323.252c.001 11.158-9.044 20.203-20.202 20.203z" fill="#90d8f9" data-original="#90d8f9"></path></g><g><path d="m484.297 17.602h-19.193c11.158 0 20.203 9.045 20.203 20.203v323.252c0 11.158-9.045 20.203-20.203 20.203h19.193c11.158 0 20.203-9.045 20.203-20.203v-323.252c0-11.158-9.045-20.203-20.203-20.203z" fill="#75cef9" data-original="#75cef9"></path></g><g><path d="m121.648-31.896h268.703v432.35h-268.703z" fill="#ecf4ff" transform="matrix(0 1 -1 0 440.279 -71.722)" data-original="#ecf4ff"></path></g><g><path d="m124.679 488.337v-20.203c0-3.347 2.714-6.061 6.061-6.061h250.52c3.347 0 6.061 2.714 6.061 6.061v20.203c0 3.347-2.714 6.061-6.061 6.061h-250.52c-3.348 0-6.061-2.713-6.061-6.061z" fill="#4a80aa" data-original="#4a80aa"></path></g><g><path d="m381.26 462.073h-30.305c3.347 0 6.061 2.714 6.061 6.061v20.203c0 3.347-2.714 6.061-6.061 6.061h30.305c3.347 0 6.061-2.714 6.061-6.061v-20.203c0-3.347-2.713-6.061-6.061-6.061z" fill="#407093" data-original="#407093"></path></g><g><g><g><path d="m72.15 91.344h46.467v40.407h-46.467z" fill="#78d090" data-original="#78d090"></path></g></g><g><g><path d="m72.15 164.075h46.467v40.407h-46.467z" fill="#78d090" data-original="#78d090"></path></g></g><g><g><path d="m72.15 236.807h46.467v40.407h-46.467z" fill="#78d090" data-original="#78d090"></path></g></g></g><g><path d="m352.976 190.339 26.062 86.874 17.375-43.437 43.437-17.374z" fill="#e490b7" data-original="#e490b7"></path></g><g><path d="m484.3 10.1h-456.6c-15.274 0-27.7 12.425-27.7 27.7v323.26c0 15.274 12.426 27.7 27.7 27.7h44.3c4.143 0 7.5-3.357 7.5-7.5s-3.357-7.5-7.5-7.5h-44.3c-7.003 0-12.7-5.697-12.7-12.7v-323.26c0-7.003 5.697-12.7 12.7-12.7h456.6c7.003 0 12.7 5.697 12.7 12.7v323.26c0 7.003-5.697 12.7-12.7 12.7h-377.3c-4.143 0-7.5 3.357-7.5 7.5s3.357 7.5 7.5 7.5h80.44c-1.428 13.172-7.318 41.706-31.462 65.811h-25.238c-7.478 0-13.561 6.083-13.561 13.56v20.21c0 7.478 6.083 13.561 13.561 13.561h186.55c4.143 0 7.5-3.357 7.5-7.5s-3.357-7.5-7.5-7.5h-185.11v-17.33h247.64v17.33h-27.53c-4.143 0-7.5 3.357-7.5 7.5s3.357 7.5 7.5 7.5h28.97c7.478 0 13.561-6.083 13.561-13.561v-20.21c0-7.477-6.083-13.56-13.561-13.56h-25.237c-24.01-23.986-29.965-52.608-31.436-65.811h159.713c15.274 0 27.7-12.426 27.7-27.7v-323.26c0-15.275-12.426-27.7-27.7-27.7zm-148.364 444.47h-159.872c20.352-25.607 25.29-52.844 26.467-65.811h106.937c1.178 12.968 6.116 40.204 26.468 65.811z" fill="#000000" data-original="#000000" class=""></path><path d="m422.29 326.13h49.88c4.143 0 7.5-3.357 7.5-7.5v-268.7c0-4.143-3.357-7.5-7.5-7.5h-432.34c-4.143 0-7.5 3.357-7.5 7.5v268.7c0 4.143 3.357 7.5 7.5 7.5h347.46c4.143 0 7.5-3.357 7.5-7.5s-3.357-7.5-7.5-7.5h-339.96v-253.7h417.34v253.7h-42.38c-4.143 0-7.5 3.357-7.5 7.5s3.357 7.5 7.5 7.5z" fill="#000000" data-original="#000000" class=""></path><path d="m126.118 91.344c0-4.143-3.357-7.5-7.5-7.5h-46.468c-4.143 0-7.5 3.357-7.5 7.5v40.406c0 4.143 3.357 7.5 7.5 7.5h46.468c4.143 0 7.5-3.357 7.5-7.5zm-15 32.906h-31.468v-25.406h31.468z" fill="#000000" data-original="#000000" class=""></path><path d="m159.024 139.25h125.26c4.143 0 7.5-3.357 7.5-7.5s-3.357-7.5-7.5-7.5h-125.26c-4.143 0-7.5 3.357-7.5 7.5s3.358 7.5 7.5 7.5z" fill="#000000" data-original="#000000" class=""></path><path d="m320.65 83.844h-103.036c-4.143 0-7.5 3.357-7.5 7.5s3.357 7.5 7.5 7.5h103.036c4.143 0 7.5-3.357 7.5-7.5s-3.357-7.5-7.5-7.5z" fill="#000000" data-original="#000000" class=""></path><path d="m159.024 98.844h23.233c4.143 0 7.5-3.357 7.5-7.5s-3.357-7.5-7.5-7.5h-23.233c-4.143 0-7.5 3.357-7.5 7.5s3.358 7.5 7.5 7.5z" fill="#000000" data-original="#000000" class=""></path><path d="m126.118 164.075c0-4.143-3.357-7.5-7.5-7.5h-46.468c-4.143 0-7.5 3.357-7.5 7.5v40.406c0 4.143 3.357 7.5 7.5 7.5h46.468c4.143 0 7.5-3.357 7.5-7.5zm-15 32.906h-31.468v-25.406h31.468z" fill="#000000" data-original="#000000" class=""></path><path d="m159.024 211.981h125.26c4.143 0 7.5-3.357 7.5-7.5s-3.357-7.5-7.5-7.5h-125.26c-4.143 0-7.5 3.357-7.5 7.5s3.358 7.5 7.5 7.5z" fill="#000000" data-original="#000000" class=""></path><path d="m320.65 156.575h-103.036c-4.143 0-7.5 3.357-7.5 7.5s3.357 7.5 7.5 7.5h103.036c4.143 0 7.5-3.357 7.5-7.5s-3.357-7.5-7.5-7.5z" fill="#000000" data-original="#000000" class=""></path><path d="m159.024 171.575h23.233c4.143 0 7.5-3.357 7.5-7.5s-3.357-7.5-7.5-7.5h-23.233c-4.143 0-7.5 3.357-7.5 7.5s3.358 7.5 7.5 7.5z" fill="#000000" data-original="#000000" class=""></path><path d="m118.618 229.307h-46.468c-4.143 0-7.5 3.357-7.5 7.5v40.407c0 4.143 3.357 7.5 7.5 7.5h46.468c4.143 0 7.5-3.357 7.5-7.5v-40.407c0-4.143-3.357-7.5-7.5-7.5zm-7.5 40.407h-31.468v-25.407h31.468z" fill="#000000" data-original="#000000" class=""></path><path d="m159.024 284.714h125.26c4.143 0 7.5-3.357 7.5-7.5s-3.357-7.5-7.5-7.5h-125.26c-4.143 0-7.5 3.357-7.5 7.5s3.358 7.5 7.5 7.5z" fill="#000000" data-original="#000000" class=""></path><path d="m328.15 236.807c0-4.143-3.357-7.5-7.5-7.5h-103.036c-4.143 0-7.5 3.357-7.5 7.5s3.357 7.5 7.5 7.5h103.036c4.143 0 7.5-3.358 7.5-7.5z" fill="#000000" data-original="#000000" class=""></path><path d="m159.024 244.307h23.233c4.143 0 7.5-3.357 7.5-7.5s-3.357-7.5-7.5-7.5h-23.233c-4.143 0-7.5 3.357-7.5 7.5s3.358 7.5 7.5 7.5z" fill="#000000" data-original="#000000" class=""></path><path d="m447.342 216.067c-.142-3.186-2.282-5.934-5.337-6.85l-86.874-26.062c-2.645-.794-5.507-.07-7.459 1.88-1.95 1.951-2.673 4.816-1.88 7.459l26.062 86.874c.916 3.055 3.664 5.195 6.85 5.337.112.006.225.008.336.008 3.054 0 5.819-1.858 6.962-4.715l16.18-40.453 40.453-16.181c2.961-1.183 4.849-4.111 4.707-7.297zm-53.715 10.745c-1.906.763-3.416 2.272-4.179 4.179l-9.397 23.496-15.889-52.962 52.962 15.889z" fill="#000000" data-original="#000000" class=""></path></g></g></g></svg>