<svg xmlns="http://www.w3.org/2000/svg" version="1.1" xmlns:xlink="http://www.w3.org/1999/xlink" xmlns:svgjs="http://svgjs.com/svgjs" width="512" height="512" x="0" y="0" viewBox="0 0 512 512" style="enable-background:new 0 0 512 512" xml:space="preserve" class=""><g>
<rect xmlns="http://www.w3.org/2000/svg" x="296.55" y="268.621" style="" width="37.4" height="68.771" fill="#fecf05" data-original="#fecf05"></rect>
<g xmlns="http://www.w3.org/2000/svg">
	<path style="" d="M221.677,209.275c-0.137,0-0.275-0.004-0.413-0.017c-27.019-2.362-52.342-18.64-71.309-45.833   c-20.291-29.086-31.464-67.654-31.464-108.595c0-3.348,2.719-6.069,6.062-6.069h57.455c2.458,0,4.506,1.887,4.709,4.337   c0.59,7.102,1.328,14.224,2.192,21.168c0.167,1.348-0.251,2.698-1.148,3.717c-0.896,1.015-2.187,1.596-3.542,1.596H156.83   c-1.508,0-2.932,0.66-3.908,1.811c-0.971,1.151-1.391,2.667-1.145,4.153c4.203,25.341,12.965,49.433,23.434,64.441   c11.747,16.844,24.551,28.071,37.031,32.477c1.209,0.426,2.195,1.324,2.728,2.489c1.621,3.545,3.29,5.748,5.058,8.077   c1.612,2.124,3.278,4.317,4.995,7.696c0.282,0.549,0.566,1.102,0.85,1.651c0.792,1.532,0.688,3.371-0.27,4.806   C224.721,208.497,223.244,209.275,221.677,209.275z" fill="#f8b816" data-original="#f8b816"></path>
	<path style="" d="M408.814,209.275c-1.567,0-3.045-0.778-3.927-2.095c-0.957-1.435-1.06-3.277-0.268-4.81   c0.285-0.548,0.567-1.099,0.849-1.65c1.715-3.371,3.383-5.569,4.995-7.693c1.77-2.329,3.438-4.532,5.06-8.077   c0.533-1.165,1.516-2.064,2.725-2.489c12.478-4.405,25.285-15.633,37.032-32.477c10.471-15.011,19.232-39.101,23.435-64.439   c0.245-1.488-0.171-3.004-1.145-4.155c-0.975-1.149-2.401-1.811-3.908-1.811H446.27c-1.354,0-2.645-0.581-3.543-1.596   c-0.895-1.019-1.314-2.369-1.147-3.717c0.865-6.942,1.603-14.066,2.194-21.168c0.202-2.45,2.251-4.337,4.708-4.337h57.455   c3.343,0,6.063,2.722,6.063,6.069c0,40.944-11.173,79.511-31.465,108.595c-18.965,27.193-44.289,43.471-71.308,45.833   C409.087,209.271,408.951,209.275,408.814,209.275z" fill="#f8b816" data-original="#f8b816"></path>
</g>
<path xmlns="http://www.w3.org/2000/svg" style="" d="M450.05,14.571c-1.371-1.399-3.247-2.189-5.207-2.189H185.646c-1.958,0-3.833,0.789-5.205,2.189  c-1.374,1.405-2.124,3.3-2.081,5.26c1.47,69.52,15.872,134.525,40.558,183.038c16.693,32.804,37.063,55.981,59.357,68.132h73.941  c22.294-12.15,42.664-35.328,59.357-68.132c24.685-48.513,39.087-113.518,40.558-183.038  C452.173,17.871,451.423,15.977,450.05,14.571z" fill="#fecf05" data-original="#fecf05"></path>
<path xmlns="http://www.w3.org/2000/svg" style="opacity:0.1;enable-background:new    ;" d="M301.36,271.001c-22.31-12.139-42.696-35.309-59.4-68.132  c-24.685-48.513-39.087-113.518-40.558-183.038c-0.043-1.96,0.708-3.854,2.081-5.26c1.372-1.399,3.248-2.189,5.205-2.189h-23.042  c-1.958,0-3.833,0.789-5.205,2.189c-1.374,1.405-2.124,3.3-2.081,5.26c1.47,69.52,15.872,134.525,40.558,183.038  c16.693,32.804,37.063,55.981,59.357,68.132H301.36z" fill="#000000" data-original="#000000"></path>
<path xmlns="http://www.w3.org/2000/svg" style="" d="M361.289,368.665v-26.948c0-3.681-2.98-6.662-6.657-6.662H275.86c-3.678,0-6.658,2.981-6.658,6.662  v26.948H361.289z" fill="#f8b816" data-original="#f8b816"></path>
<path xmlns="http://www.w3.org/2000/svg" style="" d="M391.081,458.001v-86.265c0-2.835-2.318-5.154-5.151-5.154H244.56c-2.833,0-5.151,2.319-5.151,5.154  v86.265H391.081z" fill="#a67c52" data-original="#a67c52"></path>
<path xmlns="http://www.w3.org/2000/svg" style="" d="M420.875,477.251c0,2.835-2.317,5.154-5.15,5.154H214.766c-2.833,0-5.151-2.319-5.151-5.154v-16.146  c0-2.834,2.318-5.153,5.151-5.153h200.958c2.833,0,5.15,2.319,5.15,5.153v16.146H420.875z" fill="#8c6239" data-original="#8c6239"></path>
<path xmlns="http://www.w3.org/2000/svg" style="" d="M363.321,430.047c0,1.701-1.391,3.093-3.09,3.093h-89.969c-1.7,0-3.091-1.392-3.091-3.093v-34.791  c0-1.701,1.391-3.092,3.091-3.092h89.969c1.7,0,3.09,1.391,3.09,3.092V430.047z" fill="#fecf05" data-original="#fecf05"></path>
<g xmlns="http://www.w3.org/2000/svg">
	<path style="" d="M273.76,268.62v28.696c0,2.819,2.305,5.125,5.122,5.125h72.728c2.816,0,5.121-2.306,5.121-5.125   V268.62L273.76,268.62L273.76,268.62z" fill="#f8b816" data-original="#f8b816"></path>
	<path style="" d="M377.728,136.087c0,34.526-27.975,62.519-62.482,62.519s-62.483-27.992-62.483-62.519   c0-34.531,27.976-62.522,62.483-62.522C349.753,73.564,377.728,101.556,377.728,136.087z" fill="#f8b816" data-original="#f8b816"></path>
</g>
<g xmlns="http://www.w3.org/2000/svg">
	<path style="" d="M315.246,206.105c-38.589,0-69.983-31.41-69.983-70.019c0-38.61,31.394-70.022,69.983-70.022   c38.588,0,69.982,31.412,69.982,70.022C385.228,174.695,353.834,206.105,315.246,206.105z M315.246,81.064   c-30.318,0-54.983,24.683-54.983,55.022c0,30.337,24.665,55.019,54.983,55.019c30.317,0,54.982-24.682,54.982-55.019   C370.228,105.747,345.563,81.064,315.246,81.064z" fill="#a67c52" data-original="#a67c52"></path>
	<path style="" d="M325.597,126.709h-20.701c-2.244,0-4.07-1.828-4.07-4.075v-2.438c0-2.247,1.826-4.075,4.07-4.075   h23.745c4.142,0,7.5-3.357,7.5-7.5s-3.358-7.5-7.5-7.5h-5.895v-5.902c0-4.143-3.358-7.5-7.5-7.5s-7.5,3.357-7.5,7.5v5.902h-2.85   c-10.516,0-19.07,8.557-19.07,19.075v2.438c0,10.519,8.555,19.075,19.07,19.075h20.701c2.244,0,4.069,1.828,4.069,4.074v2.439   c0,2.246-1.825,4.073-4.069,4.073h-28.618c-4.142,0-7.5,3.357-7.5,7.5s3.358,7.5,7.5,7.5h10.767v6.515c0,4.143,3.358,7.5,7.5,7.5   s7.5-3.357,7.5-7.5v-6.515h2.851c10.515,0,19.069-8.557,19.069-19.073v-2.439C344.665,135.266,336.111,126.709,325.597,126.709z" fill="#a67c52" data-original="#a67c52"></path>
</g>
<path xmlns="http://www.w3.org/2000/svg" style="" d="M257.877,320.069l19.964-61.479c-17.45-24.747-42.056-44.074-70.801-54.983l-54.176,39.385  l-54.176-39.386c-28.493,10.817-52.916,29.909-70.337,54.348l20.567,63.337L0.34,356.604c1.86,28.993,11.781,55.79,27.563,78.16  h65.279l19.303,59.45c12.864,3.517,26.399,5.404,40.378,5.404c14.148,0,27.845-1.933,40.849-5.532l20.058-61.768h65.756  c15.136-22.365,24.488-48.958,25.97-77.633L257.877,320.069z" fill="#e9eaec" data-original="#e9eaec"></path>
<path xmlns="http://www.w3.org/2000/svg" style="" d="M265.38,325.523l40.138,29.18c0.138-2.663,0.209-5.345,0.209-8.04  c0-32.799-10.321-63.181-27.883-88.084l-17.105,52.676l-57.842,17.148l-42.534-30.923v-59.941l46.679-33.935  c-16.841-6.39-35.1-9.896-54.179-9.896s-37.337,3.507-54.178,9.896l46.678,33.935v59.941l-42.801,31.117l-56.091-14.839  l-18.129-55.831C10.498,282.953,0,313.581,0,346.663c0,3.345,0.12,6.658,0.331,9.948l39.88-28.992l58.25,15.41l16.619,51.18  l-29.945,40.556H27.897c20.182,28.611,49.931,49.977,84.588,59.451l-16.067-49.481l32.072-43.436h48.538l33.71,40.356  l-17.027,52.435c35.438-9.811,65.71-32.061,85.814-61.77h-57.041l-31.836-38.113l16.717-51.482L265.38,325.523z" fill="#0059ad" data-original="#0059ad"></path>
<g xmlns="http://www.w3.org/2000/svg">
	<path style="" d="M424.25,317.517c-1.278,0-2.429-0.771-2.919-1.952c-6.6-15.95-11.464-20.82-27.396-27.431   c-1.181-0.488-1.951-1.643-1.951-2.921c0-1.279,0.771-2.433,1.951-2.923c15.933-6.608,20.796-11.478,27.396-27.429   c0.49-1.183,1.641-1.953,2.919-1.953s2.431,0.771,2.919,1.953c6.6,15.951,11.464,20.82,27.397,27.429   c1.181,0.49,1.951,1.643,1.951,2.923c0,1.278-0.77,2.433-1.951,2.921c-15.932,6.61-20.796,11.48-27.397,27.431   C426.681,316.746,425.528,317.517,424.25,317.517z" fill="#f7931e" data-original="#f7931e" class=""></path>
	<path style="" d="M69.872,107.565c-1.033,0-1.963-0.623-2.36-1.579C62.175,93.09,58.243,89.151,45.36,83.809   c-0.955-0.396-1.578-1.329-1.578-2.362c0-1.035,0.623-1.968,1.578-2.363c12.882-5.343,16.815-9.28,22.151-22.178   c0.396-0.957,1.327-1.579,2.36-1.579s1.965,0.622,2.36,1.579c5.336,12.898,9.27,16.835,22.151,22.178   c0.955,0.396,1.578,1.328,1.578,2.363c0,1.033-0.623,1.967-1.578,2.362C81.5,89.152,77.567,93.09,72.231,105.987   C71.837,106.942,70.905,107.565,69.872,107.565z" fill="#f7931e" data-original="#f7931e" class=""></path>
</g>
<path xmlns="http://www.w3.org/2000/svg" style="opacity:0.1;enable-background:new    ;" d="M25.476,346.663c0-80.184,61.662-145.945,140.125-152.423  c-4.201-0.347-8.448-0.532-12.738-0.532C68.439,193.708,0,262.186,0,346.663c0,84.473,68.439,152.956,152.863,152.956  c4.29,0,8.537-0.187,12.738-0.532C87.138,492.608,25.476,426.844,25.476,346.663z" fill="#000000" data-original="#000000"></path>
<g xmlns="http://www.w3.org/2000/svg">
</g>
<g xmlns="http://www.w3.org/2000/svg">
</g>
<g xmlns="http://www.w3.org/2000/svg">
</g>
<g xmlns="http://www.w3.org/2000/svg">
</g>
<g xmlns="http://www.w3.org/2000/svg">
</g>
<g xmlns="http://www.w3.org/2000/svg">
</g>
<g xmlns="http://www.w3.org/2000/svg">
</g>
<g xmlns="http://www.w3.org/2000/svg">
</g>
<g xmlns="http://www.w3.org/2000/svg">
</g>
<g xmlns="http://www.w3.org/2000/svg">
</g>
<g xmlns="http://www.w3.org/2000/svg">
</g>
<g xmlns="http://www.w3.org/2000/svg">
</g>
<g xmlns="http://www.w3.org/2000/svg">
</g>
<g xmlns="http://www.w3.org/2000/svg">
</g>
<g xmlns="http://www.w3.org/2000/svg">
</g>
</g></svg>